<svg width="24" height="24" viewBox="0 0 24 24" fill="none" xmlns="http://www.w3.org/2000/svg">
<path d="M15 18C15 19.6557 16.3443 21 18 21C19.6557 21 21 19.6557 21 18C21 16.3443 19.6557 15 18 15C16.3443 15 15 16.3443 15 18V18" stroke="#00D4AA" stroke-width="2" stroke-linecap="round" stroke-linejoin="round"/>
<path d="M3 6C3 7.65575 4.34425 9 6 9C7.65575 9 9 7.65575 9 6C9 4.34425 7.65575 3 6 3C4.34425 3 3 4.34425 3 6H3" stroke="#00D4AA" stroke-width="2" stroke-linecap="round" stroke-linejoin="round"/>
<path d="M6 21V9C6 13.9672 10.0328 18 15 18" stroke="#00D4AA" stroke-width="2" stroke-linecap="round" stroke-linejoin="round"/>
</svg>
