<svg width="30" height="28" viewBox="0 0 30 28" fill="none" xmlns="http://www.w3.org/2000/svg">
<path d="M22.6666 21.3076H14.68C13.2133 21.3076 12.08 22.5609 11.3733 23.8409C10.2223 26.0007 7.74915 27.0999 5.37474 26.5071C3.00033 25.9143 1.33408 23.7816 1.33331 21.3343C1.34665 20.4009 1.59998 19.4676 2.09331 18.6676" stroke="white" stroke-width="2.66667" stroke-linecap="round" stroke-linejoin="round"/>
<path d="M6.66663 21.3343L10.84 13.6276C11.5466 12.3343 10.9733 10.7209 10.1733 9.49426C9.14536 7.8503 9.09058 5.77798 10.0302 4.08201C10.9699 2.38603 12.7559 1.3336 14.6948 1.33337C16.6337 1.33315 18.4199 2.38517 19.36 4.08093" stroke="white" stroke-width="2.66667" stroke-linecap="round" stroke-linejoin="round"/>
<path d="M14.6666 6.6676L18.84 14.3076C19.5466 15.6009 21.2 16.0009 22.6666 16.0009C25.6102 16.0009 28 18.3907 28 21.3343C28 24.2778 25.6102 26.6676 22.6666 26.6676" stroke="white" stroke-width="2.66667" stroke-linecap="round" stroke-linejoin="round"/>
</svg>
