<svg width="27" height="30" viewBox="0 0 27 30" fill="none" xmlns="http://www.w3.org/2000/svg">
<path d="M18.6667 28V22.6667C18.8522 20.9964 18.3733 19.3202 17.3334 18C21.3334 18 25.3334 15.3334 25.3334 10.6667C25.4401 9.00004 24.9734 7.36004 24.0001 6.00004C24.3734 4.46671 24.3734 2.86671 24.0001 1.33337C24.0001 1.33337 22.6667 1.33337 20.0001 3.33337C16.4801 2.66671 12.8534 2.66671 9.33339 3.33337C6.66672 1.33337 5.33339 1.33337 5.33339 1.33337C4.93339 2.86671 4.93339 4.46671 5.33339 6.00004C4.36225 7.35441 3.89102 9.00372 4.00005 10.6667C4.00005 15.3334 8.00005 18 12.0001 18C11.4801 18.6534 11.0934 19.4 10.8667 20.2C10.6401 21 10.5734 21.84 10.6667 22.6667V28" stroke="white" stroke-width="2.66667" stroke-linecap="round" stroke-linejoin="round"/>
<path d="M10.6667 22.6668C4.65337 25.3335 4.00004 20.0001 1.33337 20.0001" stroke="white" stroke-width="2.66667" stroke-linecap="round" stroke-linejoin="round"/>
</svg>
