<svg width="32" height="30" viewBox="0 0 32 30" fill="none" xmlns="http://www.w3.org/2000/svg">
<g filter="url(#filter0_d_1_175)">
<path d="M25.3333 6.66671V2.66671C25.3333 1.93082 24.7359 1.33337 24 1.33337H6.66667C5.19489 1.33337 4 2.52827 4 4.00004C4 5.47181 5.19489 6.66671 6.66667 6.66671H26.6667C27.4026 6.66671 28 7.26415 28 8.00004V13.3334H24C22.5282 13.3334 21.3333 14.5283 21.3333 16C21.3333 17.4718 22.5282 18.6667 24 18.6667H28C28.7359 18.6667 29.3333 18.0693 29.3333 17.3334V14.6667C29.3333 13.9308 28.7359 13.3334 28 13.3334" stroke="white" stroke-width="2.66667" stroke-linecap="round" stroke-linejoin="round"/>
<path d="M4 4V22.6667C4 24.1384 5.19489 25.3333 6.66667 25.3333H26.6667C27.4026 25.3333 28 24.7359 28 24V18.6667" stroke="white" stroke-width="2.66667" stroke-linecap="round" stroke-linejoin="round"/>
</g>
<defs>
<filter id="filter0_d_1_175" x="-1.33337" y="0" width="36.0001" height="34.6666" filterUnits="userSpaceOnUse" color-interpolation-filters="sRGB">
<feFlood flood-opacity="0" result="BackgroundImageFix"/>
<feColorMatrix in="SourceAlpha" type="matrix" values="0 0 0 0 0 0 0 0 0 0 0 0 0 0 0 0 0 0 127 0" result="hardAlpha"/>
<feOffset dy="4"/>
<feGaussianBlur stdDeviation="2"/>
<feComposite in2="hardAlpha" operator="out"/>
<feColorMatrix type="matrix" values="0 0 0 0 0 0 0 0 0 0 0 0 0 0 0 0 0 0 0.25 0"/>
<feBlend mode="normal" in2="BackgroundImageFix" result="effect1_dropShadow_1_175"/>
<feBlend mode="normal" in="SourceGraphic" in2="effect1_dropShadow_1_175" result="shape"/>
</filter>
</defs>
</svg>
