<svg width="27" height="30" viewBox="0 0 27 30" fill="none" xmlns="http://www.w3.org/2000/svg">
<path d="M18.6666 12C18.6666 14.9436 16.2769 17.3334 13.3333 17.3334C10.3898 17.3334 7.99998 14.9436 7.99998 12M1.47064 6.71204H25.196" stroke="white" stroke-width="2.66667" stroke-linecap="round" stroke-linejoin="round"/>
<path d="M1.86665 5.95604C1.52045 6.41763 1.33331 6.97905 1.33331 7.55604V25.3334C1.33331 26.8051 2.52821 28 3.99998 28H22.6666C24.1384 28 25.3333 26.8051 25.3333 25.3334V7.55604C25.3333 6.97905 25.1462 6.41763 24.8 5.95604L22.1333 2.40004C21.6297 1.72856 20.8393 1.33337 20 1.33337H6.66665C5.82729 1.33337 5.03692 1.72856 4.53331 2.40004L1.86665 5.95604" stroke="white" stroke-width="2.66667" stroke-linecap="round" stroke-linejoin="round"/>
</svg>
