<svg width="30" height="30" viewBox="0 0 30 30" fill="none" xmlns="http://www.w3.org/2000/svg">
<path d="M17.9999 1.33337V1.33337C19.1038 1.33337 19.9999 2.22954 19.9999 3.33337V10C19.9999 11.1039 19.1038 12 17.9999 12V12C16.8961 12 15.9999 11.1039 15.9999 10V3.33337C15.9999 2.22954 16.8961 1.33337 17.9999 1.33337V1.33337" stroke="white" stroke-width="2.66667" stroke-linecap="round" stroke-linejoin="round"/>
<path d="M23.9999 10.0001V12.0001H25.9999C27.1038 12.0001 27.9999 11.104 27.9999 10.0001C27.9999 8.89629 27.1038 8.00012 25.9999 8.00012C24.8961 8.00012 23.9999 8.89629 23.9999 10.0001" stroke="white" stroke-width="2.66667" stroke-linecap="round" stroke-linejoin="round"/>
<path d="M11.3333 17.3334V17.3334C12.4371 17.3334 13.3333 18.2295 13.3333 19.3334V26C13.3333 27.1039 12.4371 28 11.3333 28V28C10.2295 28 9.33331 27.1039 9.33331 26V19.3334C9.33331 18.2295 10.2295 17.3334 11.3333 17.3334V17.3334" stroke="white" stroke-width="2.66667" stroke-linecap="round" stroke-linejoin="round"/>
<path d="M5.33331 19.3334V17.3334H3.33331C2.22948 17.3334 1.33331 18.2295 1.33331 19.3334C1.33331 20.4372 2.22948 21.3334 3.33331 21.3334C4.43714 21.3334 5.33331 20.4372 5.33331 19.3334" stroke="white" stroke-width="2.66667" stroke-linecap="round" stroke-linejoin="round"/>
<path d="M19.3333 16.0001H26C27.1038 16.0001 28 16.8963 28 18.0001V18.0001C28 19.104 27.1038 20.0001 26 20.0001H19.3333C18.2295 20.0001 17.3333 19.104 17.3333 18.0001V18.0001C17.3333 16.8963 18.2295 16.0001 19.3333 16.0001V16.0001" stroke="white" stroke-width="2.66667" stroke-linecap="round" stroke-linejoin="round"/>
<path d="M19.3333 24.0001H17.3333V26.0001C17.3333 27.104 18.2295 28.0001 19.3333 28.0001C20.4371 28.0001 21.3333 27.104 21.3333 26.0001C21.3333 24.8963 20.4371 24.0001 19.3333 24.0001" stroke="white" stroke-width="2.66667" stroke-linecap="round" stroke-linejoin="round"/>
<path d="M3.33331 9.33337H9.99998C11.1038 9.33337 12 10.2295 12 11.3334V11.3334C12 12.4372 11.1038 13.3334 9.99998 13.3334H3.33331C2.22948 13.3334 1.33331 12.4372 1.33331 11.3334V11.3334C1.33331 10.2295 2.22948 9.33337 3.33331 9.33337V9.33337" stroke="white" stroke-width="2.66667" stroke-linecap="round" stroke-linejoin="round"/>
<path d="M9.99994 5.33337H11.9999V3.33337C11.9999 2.22954 11.1038 1.33337 9.99994 1.33337C8.89611 1.33337 7.99994 2.22954 7.99994 3.33337C7.99994 4.4372 8.89611 5.33337 9.99994 5.33337" stroke="white" stroke-width="2.66667" stroke-linecap="round" stroke-linejoin="round"/>
</svg>
